<svg xmlns="http://www.w3.org/2000/svg" xmlns:xlink="http://www.w3.org/1999/xlink" id="Layer_1" x="0" y="0" version="1.1" viewBox="0 0 24 24" xml:space="preserve" style="enable-background:new 0 0 24 24"><style type="text/css">.st0{fill:#fff}</style><path d="M15,12c0,1.7-1.3,3-3,3s-3-1.3-3-3s1.3-3,3-3S15,10.3,15,12z M24,11.6c0,0-4.3,7.4-12,7.4c-7.2,0-12-7.4-12-7.4	S4.4,5,12,5C19.7,5,24,11.6,24,11.6z M17,12c0-2.8-2.2-5-5-5c-2.8,0-5,2.2-5,5c0,2.8,2.2,5,5,5C14.8,17,17,14.8,17,12z" class="st0"/></svg>